<?xml version="1.0" encoding="UTF-8"?>
<!DOCTYPE svg PUBLIC "-//W3C//DTD SVG 1.1//EN" "http://www.w3.org/Graphics/SVG/1.1/DTD/svg11.dtd">
<svg xmlns="http://www.w3.org/2000/svg" version="1.1" width="1226px" height="375px" style="shape-rendering:geometricPrecision; text-rendering:geometricPrecision; image-rendering:optimizeQuality; fill-rule:evenodd; clip-rule:evenodd" xmlns:xlink="http://www.w3.org/1999/xlink">
<g><path style="opacity:0.901" fill="#ffffff" d="M 166.5,80.5 C 170.555,80.1758 174.555,80.5091 178.5,81.5C 210.946,97.6463 243.28,113.98 275.5,130.5C 276.833,172.167 276.833,213.833 275.5,255.5C 272.883,257.425 270.216,259.258 267.5,261C 238.042,276.212 208.709,291.712 179.5,307.5C 177.333,307.833 175.167,308.167 173,308.5C 168.346,308.173 164.013,306.84 160,304.5C 131.486,289.987 102.82,275.654 74,261.5C 71.6593,259.831 69.326,258.164 67,256.5C 66.1667,215.829 66.3334,175.163 67.5,134.5C 68.7193,133.737 69.7193,132.737 70.5,131.5C 102.8,114.861 134.8,97.8611 166.5,80.5 Z M 169.5,100.5 C 172.807,100.462 175.974,101.128 179,102.5C 201.516,113.865 224.349,125.698 247.5,138C 222.349,150.493 197.516,163.66 173,177.5C 147.759,164.341 122.259,151.675 96.5,139.5C 120.823,126.297 145.157,113.297 169.5,100.5 Z M 258.5,152.5 C 259.492,159.648 259.825,166.981 259.5,174.5C 257.436,174.687 255.436,175.187 253.5,176C 253.833,176.333 254.167,176.667 254.5,177C 251.116,177.758 248.116,179.258 245.5,181.5C 243.856,179.355 242.023,177.355 240,175.5C 237.547,174.507 235.047,174.34 232.5,175C 224.635,179.432 216.635,183.599 208.5,187.5C 207.52,188.981 206.353,190.315 205,191.5C 204.827,195.541 204.327,199.541 203.5,203.5C 196.544,206.645 189.877,210.311 183.5,214.5C 182.188,207.276 182.188,200.109 183.5,193C 203.216,182.928 222.883,172.761 242.5,162.5C 247.898,159.142 253.231,155.808 258.5,152.5 Z M 84.5,155.5 C 110.665,167.581 136.665,180.248 162.5,193.5C 163.833,200.5 163.833,207.5 162.5,214.5C 137.333,202.343 112.333,190.01 87.5,177.5C 86.8333,176.833 86.1667,176.167 85.5,175.5C 84.5033,168.866 84.17,162.2 84.5,155.5 Z M 257.5,195.5 C 258.831,203.138 259.498,211.138 259.5,219.5C 259.333,227.5 259.167,235.5 259,243.5C 233.876,257.398 208.542,271.065 183,284.5C 182.5,268.17 182.333,251.837 182.5,235.5C 189.75,232.106 196.916,228.439 204,224.5C 204.171,229.533 204.671,234.533 205.5,239.5C 209.543,243.573 214.376,244.573 220,242.5C 226.624,238.438 233.457,234.771 240.5,231.5C 241.681,230.485 242.681,229.319 243.5,228C 244.457,219.542 244.79,211.042 244.5,202.5C 249.105,200.651 253.439,198.317 257.5,195.5 Z M 84.5,196.5 C 95.0092,201.921 105.676,207.088 116.5,212C 131.311,220.172 146.978,228.005 163.5,235.5C 163.833,251.847 163.499,268.18 162.5,284.5C 137.257,271.552 111.257,258.885 84.5,246.5C 84.5,229.833 84.5,213.167 84.5,196.5 Z M 225.5,200.5 C 225.829,206.537 225.496,212.537 224.5,218.5C 224.167,215.5 223.833,212.5 223.5,209.5C 223.517,206.087 224.184,203.087 225.5,200.5 Z"/></g>
</svg>
